<?xml version="1.0" encoding="UTF-8" standalone="no"?>
<!DOCTYPE svg PUBLIC "-//W3C//DTD SVG 1.1//EN" "http://www.w3.org/Graphics/SVG/1.1/DTD/svg11.dtd">
<svg width="100%" height="100%" viewBox="0 0 32 54" version="1.1" xmlns="http://www.w3.org/2000/svg" xmlns:xlink="http://www.w3.org/1999/xlink" xml:space="preserve" xmlns:serif="http://www.serif.com/" style="fill-rule:evenodd;clip-rule:evenodd;stroke-linejoin:round;stroke-miterlimit:2;">
    <g transform="matrix(1,0,0,1,-124.2343,-174.0856)">
        <g>
            <g>
                <path d="M125.404,201.298L124.27,200.165L124.27,176.92L124.328,176.35L124.5,175.802L124.778,175.301L125.151,174.865L125.605,174.515L126.12,174.262L126.676,174.118L127.105,174.086L148.364,174.086L149.271,174.144L150.162,174.317L151.024,174.603L151.842,174.998L152.603,175.493L153.295,176.082L153.905,176.754L154.424,177.499L154.844,178.303L155.158,179.156L155.361,180.042L155.448,180.945L155.451,181.173L155.451,225.677L155.394,226.181L155.227,226.66L154.957,227.091L154.597,227.449L154.167,227.72L153.688,227.887L153.183,227.944L130.223,227.944L129.718,227.887L129.239,227.719L128.809,227.448L128.45,227.09L128.18,226.659L128.012,226.18L127.955,225.677L127.955,214.663L127.954,214.624L127.882,214.32L127.706,214.061L124.519,210.12L124.342,209.862L124.271,209.558L124.27,209.519L124.27,205.834L124.324,205.667L124.466,205.564L124.554,205.55L125.971,205.55L126.059,205.536L126.2,205.434L126.254,205.267L126.254,202.148L124.27,200.165L124.27,184.858" style="fill:rgb(0,106,82);fill-rule:nonzero;"/>
                <path d="M124.234,200.165C124.234,200.155 124.238,200.146 124.245,200.139C124.259,200.125 124.282,200.125 124.296,200.139L125.43,201.273C125.443,201.286 125.443,201.31 125.43,201.323C125.416,201.338 125.392,201.338 125.379,201.323L124.245,200.19C124.238,200.183 124.234,200.174 124.234,200.165Z" style="fill:rgb(0,106,82);fill-rule:nonzero;"/>
            </g>
            <g>
                <path d="M132.918,188.517L152.142,188.517L152.142,191.162L141.963,194.7L141.963,194.754L152.142,198.264L152.142,200.937L132.918,200.937L132.918,198.183L144.61,198.183L144.61,198.129L136.347,195.402L136.347,194.025L144.61,191.325L144.61,191.27L132.918,191.27L132.918,188.517Z" style="fill:rgb(227,214,158);fill-rule:nonzero;"/>
                <rect x="132.918" y="203.61" width="19.224" height="2.754" style="fill:rgb(227,214,158);fill-rule:nonzero;"/>
                <path d="M132.918,209.036L152.142,209.036L152.142,213.114C152.142,214.697 151.71,215.899 150.846,216.718C149.983,217.537 148.758,217.947 147.174,217.947L138.183,217.947C136.383,217.947 135.056,217.51 134.2,216.637C133.346,215.764 132.918,214.508 132.918,212.87L132.918,209.036L132.918,209.036ZM149.55,211.791L135.51,211.791L135.51,213.06C135.51,213.833 135.703,214.383 136.091,214.707C136.478,215.031 137.085,215.193 137.913,215.193L147.174,215.193C147.93,215.193 148.515,215.04 148.929,214.734C149.343,214.427 149.55,213.87 149.55,213.06L149.55,211.791Z" style="fill:rgb(227,214,158);fill-rule:nonzero;"/>
                <rect x="132.918" y="220.619" width="19.224" height="2.754" style="fill:rgb(227,214,158);fill-rule:nonzero;"/>
            </g>
            <g>
                <path d="M134.06,181.961C134.06,182.177 134.023,182.369 133.947,182.537C133.872,182.705 133.772,182.849 133.646,182.969C133.52,183.089 133.375,183.181 133.209,183.243C133.045,183.307 132.872,183.338 132.692,183.338C132.512,183.338 132.34,183.307 132.175,183.243C132.01,183.181 131.864,183.089 131.738,182.969C131.612,182.849 131.511,182.705 131.436,182.537C131.362,182.369 131.324,182.177 131.324,181.961L131.324,178.199C131.324,177.983 131.362,177.791 131.436,177.623C131.511,177.455 131.612,177.311 131.738,177.191C131.864,177.071 132.01,176.98 132.175,176.916C132.34,176.854 132.512,176.822 132.692,176.822C132.872,176.822 133.045,176.853 133.209,176.916C133.375,176.98 133.52,177.071 133.646,177.191C133.772,177.311 133.872,177.455 133.947,177.623C134.023,177.791 134.06,177.983 134.06,178.199L134.06,181.961ZM133.142,178.199C133.142,178.067 133.1,177.957 133.016,177.87C132.932,177.783 132.824,177.74 132.692,177.74C132.56,177.74 132.452,177.783 132.368,177.87C132.284,177.957 132.242,178.067 132.242,178.199L132.242,181.961C132.242,182.093 132.284,182.202 132.368,182.289C132.452,182.376 132.56,182.42 132.692,182.42C132.824,182.42 132.932,182.376 133.016,182.289C133.1,182.202 133.142,182.093 133.142,181.961L133.142,178.199Z" style="fill:rgb(227,214,158);fill-rule:nonzero;"/>
                <path d="M130.712,181.961C130.712,182.177 130.674,182.369 130.599,182.537C130.524,182.705 130.423,182.849 130.298,182.969C130.172,183.089 130.027,183.181 129.861,183.243C129.696,183.307 129.524,183.338 129.344,183.338C129.164,183.338 128.991,183.307 128.826,183.243C128.661,183.181 128.516,183.089 128.39,182.969C128.264,182.849 128.163,182.705 128.088,182.537C128.013,182.369 127.976,182.177 127.976,181.961L127.976,178.199C127.976,177.983 128.013,177.791 128.088,177.623C128.163,177.455 128.264,177.311 128.39,177.191C128.516,177.071 128.661,176.98 128.826,176.916C128.991,176.854 129.164,176.822 129.344,176.822C129.524,176.822 129.696,176.853 129.861,176.916C130.027,176.98 130.172,177.071 130.298,177.191C130.424,177.311 130.524,177.455 130.599,177.623C130.674,177.791 130.712,177.983 130.712,178.199L130.712,181.961ZM129.794,178.199C129.794,178.067 129.752,177.957 129.668,177.87C129.584,177.783 129.476,177.74 129.344,177.74C129.212,177.74 129.104,177.783 129.02,177.87C128.936,177.957 128.894,178.067 128.894,178.199L128.894,181.961C128.894,182.093 128.936,182.202 129.02,182.289C129.104,182.376 129.212,182.42 129.344,182.42C129.476,182.42 129.584,182.376 129.668,182.289C129.752,182.202 129.794,182.093 129.794,181.961L129.794,178.199Z" style="fill:rgb(227,214,158);fill-rule:nonzero;"/>
            </g>
        </g>
    </g>
</svg>
