<?xml version="1.0" encoding="UTF-8" standalone="no"?>
<!DOCTYPE svg PUBLIC "-//W3C//DTD SVG 1.1//EN" "http://www.w3.org/Graphics/SVG/1.1/DTD/svg11.dtd">
<svg width="100%" height="100%" viewBox="0 0 32 54" version="1.1" xmlns="http://www.w3.org/2000/svg" xmlns:xlink="http://www.w3.org/1999/xlink" xml:space="preserve" xmlns:serif="http://www.serif.com/" style="fill-rule:evenodd;clip-rule:evenodd;stroke-linejoin:round;stroke-miterlimit:2;">
    <g transform="matrix(1,0,0,1,-124.8133,-309.1126)">
        <g>
            <g>
                <path d="M125.983,336.325L124.849,335.192L124.849,311.947L124.907,311.377L125.079,310.829L125.357,310.328L125.731,309.892L126.184,309.542L126.699,309.289L127.255,309.145L127.684,309.113L148.943,309.113L149.85,309.171L150.741,309.344L151.603,309.63L152.421,310.025L153.182,310.52L153.874,311.108L154.484,311.781L155.004,312.525L155.423,313.33L155.737,314.183L155.94,315.068L156.027,315.972L156.03,316.2L156.03,360.704L155.973,361.208L155.806,361.687L155.536,362.118L155.176,362.476L154.746,362.747L154.267,362.914L153.762,362.971L130.802,362.971L130.297,362.914L129.818,362.746L129.388,362.475L129.029,362.117L128.759,361.686L128.591,361.207L128.534,360.704L128.534,349.69L128.533,349.651L128.461,349.347L128.285,349.089L125.098,345.147L124.921,344.889L124.85,344.585L124.849,344.546L124.849,340.861L124.903,340.694L125.045,340.591L125.133,340.577L126.55,340.577L126.638,340.563L126.779,340.461L126.834,340.294L126.834,337.175L124.849,335.192L124.849,319.885" style="fill:rgb(0,106,82);fill-rule:nonzero;"/>
                <path d="M124.813,335.192C124.813,335.182 124.817,335.173 124.824,335.166C124.838,335.152 124.861,335.152 124.875,335.166L126.009,336.3C126.022,336.313 126.022,336.337 126.009,336.35C125.995,336.365 125.971,336.365 125.958,336.35L124.824,335.217C124.817,335.21 124.813,335.201 124.813,335.192Z" style="fill:rgb(0,106,82);fill-rule:nonzero;"/>
            </g>
        </g>
    </g>
</svg>
