<?xml version="1.0" encoding="UTF-8" standalone="no"?>
<!DOCTYPE svg PUBLIC "-//W3C//DTD SVG 1.1//EN" "http://www.w3.org/Graphics/SVG/1.1/DTD/svg11.dtd">
<svg width="100%" height="100%" viewBox="0 0 32 54" version="1.1" xmlns="http://www.w3.org/2000/svg" xmlns:xlink="http://www.w3.org/1999/xlink" xml:space="preserve" xmlns:serif="http://www.serif.com/" style="fill-rule:evenodd;clip-rule:evenodd;stroke-linejoin:round;stroke-miterlimit:2;">
    <g transform="matrix(1,0,0,1,-124.8133,-107.141)">
        <g>
            <g>
                <path d="M125.983,134.353L124.849,133.22L124.849,109.976L124.907,109.405L125.079,108.857L125.357,108.356L125.731,107.921L126.184,107.57L126.699,107.317L127.255,107.173L127.684,107.141L148.943,107.141L149.85,107.199L150.741,107.373L151.603,107.659L152.421,108.053L153.182,108.549L153.874,109.137L154.484,109.809L155.004,110.554L155.423,111.359L155.737,112.211L155.94,113.097L156.027,114L156.03,114.228L156.03,158.732L155.973,159.237L155.806,159.715L155.536,160.146L155.176,160.505L154.746,160.775L154.267,160.942L153.762,160.999L130.802,160.999L130.297,160.942L129.818,160.774L129.388,160.504L129.029,160.145L128.759,159.715L128.591,159.235L128.534,158.732L128.534,147.719L128.533,147.679L128.461,147.375L128.285,147.117L125.098,143.175L124.921,142.918L124.85,142.613L124.849,142.574L124.849,138.889L124.903,138.722L125.045,138.619L125.133,138.606L126.55,138.606L126.638,138.591L126.779,138.489L126.834,138.322L126.834,135.204L124.849,133.22L124.849,117.913" style="fill:rgb(0,106,82);fill-rule:nonzero;"/>
                <path d="M124.813,133.22C124.813,133.211 124.817,133.201 124.824,133.195C124.838,133.18 124.861,133.18 124.875,133.195L126.009,134.328C126.022,134.342 126.022,134.365 126.009,134.379C125.995,134.393 125.971,134.393 125.958,134.379L124.824,133.245C124.817,133.239 124.813,133.229 124.813,133.22Z" style="fill:rgb(0,106,82);fill-rule:nonzero;"/>
            </g>
            <g>
                <path d="M134.11,109.357L134.11,110.222L132.454,113.345C132.37,113.5 132.322,113.637 132.31,113.754C132.298,113.871 132.292,114.016 132.292,114.19C132.292,114.268 132.293,114.35 132.296,114.437C132.299,114.524 132.316,114.602 132.346,114.667C132.376,114.733 132.421,114.789 132.481,114.834C132.541,114.879 132.628,114.901 132.742,114.901C132.88,114.901 132.99,114.862 133.07,114.784C133.151,114.706 133.192,114.593 133.192,114.442L133.192,113.921L134.11,113.921L134.11,114.425C134.11,114.616 134.074,114.796 134.002,114.965C133.93,115.133 133.831,115.279 133.705,115.405C133.585,115.531 133.441,115.632 133.273,115.707C133.105,115.782 132.925,115.819 132.733,115.819C132.493,115.819 132.287,115.775 132.117,115.688C131.945,115.601 131.803,115.483 131.689,115.333C131.581,115.183 131.501,115.013 131.451,114.82C131.399,114.628 131.374,114.425 131.374,114.208C131.374,114.053 131.377,113.922 131.383,113.817C131.389,113.712 131.401,113.611 131.419,113.515C131.437,113.419 131.467,113.323 131.509,113.227C131.551,113.132 131.608,113.014 131.68,112.876L133.03,110.275L131.374,110.275L131.374,109.357L134.11,109.357Z" style="fill:rgb(227,214,158);fill-rule:nonzero;"/>
                <path d="M130.761,114.442C130.761,114.658 130.724,114.85 130.649,115.019C130.574,115.187 130.473,115.33 130.347,115.45C130.221,115.57 130.076,115.662 129.911,115.725C129.746,115.788 129.573,115.819 129.394,115.819C129.214,115.819 129.041,115.788 128.876,115.725C128.711,115.662 128.566,115.57 128.44,115.45C128.314,115.33 128.213,115.186 128.138,115.019C128.063,114.85 128.026,114.658 128.026,114.442L128.026,110.681C128.026,110.465 128.063,110.272 128.138,110.104C128.213,109.936 128.314,109.792 128.44,109.673C128.566,109.553 128.711,109.461 128.876,109.397C129.041,109.335 129.214,109.304 129.394,109.304C129.573,109.304 129.746,109.335 129.911,109.397C130.076,109.461 130.221,109.553 130.347,109.673C130.473,109.792 130.574,109.936 130.649,110.104C130.724,110.272 130.761,110.465 130.761,110.681L130.761,114.442ZM129.843,110.681C129.843,110.549 129.801,110.438 129.717,110.352C129.633,110.265 129.525,110.222 129.394,110.222C129.262,110.222 129.154,110.265 129.07,110.352C128.986,110.438 128.944,110.549 128.944,110.681L128.944,114.442C128.944,114.574 128.986,114.684 129.07,114.77C129.154,114.857 129.262,114.901 129.394,114.901C129.525,114.901 129.633,114.857 129.717,114.77C129.801,114.683 129.843,114.574 129.843,114.442L129.843,110.681Z" style="fill:rgb(227,214,158);fill-rule:nonzero;"/>
            </g>
        </g>
        <g transform="matrix(0,2.269231,-1.666667,0,176.646633,107.294846)">
            <path d="M6.096,16.132L6.096,14.805L6.929,14.805C7.104,14.805 7.235,14.857 7.322,14.96C7.409,15.064 7.453,15.23 7.453,15.459C7.453,15.696 7.409,15.868 7.322,15.973C7.235,16.079 7.104,16.132 6.929,16.132L6.096,16.132ZM5.334,14L5.334,18.712L6.096,18.712L6.096,16.871L6.857,16.871C7.047,16.871 7.185,16.928 7.269,17.043C7.353,17.157 7.408,17.337 7.433,17.584C7.453,17.773 7.467,17.971 7.477,18.178C7.487,18.385 7.513,18.563 7.555,18.712L8.316,18.712C8.28,18.646 8.253,18.566 8.236,18.471C8.218,18.377 8.205,18.277 8.197,18.171C8.189,18.066 8.183,17.962 8.18,17.861C8.177,17.76 8.173,17.672 8.17,17.597C8.164,17.478 8.152,17.359 8.134,17.241C8.116,17.122 8.088,17.013 8.049,16.914C8.01,16.815 7.96,16.729 7.899,16.656C7.837,16.584 7.76,16.53 7.666,16.495L7.666,16.482C7.86,16.376 8,16.222 8.085,16.02C8.171,15.817 8.214,15.577 8.214,15.3C8.214,15.12 8.19,14.951 8.144,14.795C8.097,14.639 8.029,14.502 7.94,14.383C7.851,14.264 7.744,14.17 7.62,14.102C7.496,14.034 7.356,14 7.201,14L5.334,14Z" style="fill:rgb(227,214,158);fill-rule:nonzero;"/>
            <path d="M10.449,16.64L9.329,16.64C9.332,16.574 9.343,16.499 9.36,16.416C9.378,16.332 9.409,16.253 9.452,16.178C9.496,16.103 9.554,16.04 9.627,15.99C9.7,15.939 9.791,15.914 9.901,15.914C10.069,15.914 10.194,15.976 10.276,16.099C10.359,16.222 10.416,16.402 10.449,16.64ZM9.329,17.234L11.137,17.234C11.15,16.97 11.134,16.717 11.088,16.475C11.043,16.233 10.97,16.017 10.868,15.828C10.766,15.639 10.636,15.488 10.478,15.376C10.319,15.264 10.133,15.208 9.92,15.208C9.73,15.208 9.556,15.254 9.399,15.346C9.242,15.439 9.107,15.565 8.994,15.726C8.881,15.886 8.794,16.077 8.733,16.297C8.671,16.517 8.64,16.754 8.64,17.01C8.64,17.274 8.67,17.516 8.73,17.736C8.79,17.956 8.875,18.145 8.985,18.303C9.094,18.462 9.229,18.584 9.387,18.669C9.545,18.755 9.723,18.798 9.92,18.798C10.205,18.798 10.447,18.71 10.647,18.534C10.848,18.358 10.996,18.066 11.093,17.656L10.487,17.656C10.465,17.762 10.403,17.862 10.303,17.957C10.203,18.051 10.083,18.099 9.944,18.099C9.751,18.099 9.602,18.03 9.498,17.894C9.395,17.758 9.338,17.538 9.329,17.234Z" style="fill:rgb(227,214,158);fill-rule:nonzero;"/>
            <path d="M12.93,18.712L13.779,15.3L13.095,15.3L12.567,17.63L12.557,17.63L12.029,15.3L11.307,15.3L12.165,18.712L12.93,18.712Z" style="fill:rgb(227,214,158);fill-rule:nonzero;"/>
            <path d="M15.752,16.64L14.632,16.64C14.635,16.574 14.646,16.499 14.663,16.416C14.681,16.332 14.712,16.253 14.756,16.178C14.799,16.103 14.857,16.04 14.93,15.99C15.003,15.939 15.094,15.914 15.204,15.914C15.372,15.914 15.497,15.976 15.58,16.099C15.662,16.222 15.719,16.402 15.752,16.64ZM14.632,17.234L16.44,17.234C16.453,16.97 16.437,16.717 16.392,16.475C16.346,16.233 16.273,16.017 16.171,15.828C16.069,15.639 15.939,15.488 15.781,15.376C15.622,15.264 15.437,15.208 15.223,15.208C15.033,15.208 14.859,15.254 14.702,15.346C14.545,15.439 14.411,15.565 14.297,15.726C14.184,15.886 14.097,16.077 14.036,16.297C13.974,16.517 13.944,16.754 13.944,17.01C13.944,17.274 13.973,17.516 14.033,17.736C14.093,17.956 14.178,18.145 14.288,18.303C14.398,18.462 14.532,18.584 14.69,18.669C14.848,18.755 15.026,18.798 15.223,18.798C15.508,18.798 15.75,18.71 15.95,18.534C16.151,18.358 16.299,18.066 16.396,17.656L15.79,17.656C15.768,17.762 15.706,17.862 15.606,17.957C15.506,18.051 15.386,18.099 15.248,18.099C15.054,18.099 14.905,18.03 14.802,17.894C14.698,17.758 14.642,17.538 14.632,17.234Z" style="fill:rgb(227,214,158);fill-rule:nonzero;"/>
            <path d="M16.847,15.3L16.847,18.712L17.536,18.712L17.536,17.175C17.536,17.021 17.547,16.878 17.569,16.746C17.592,16.614 17.63,16.498 17.683,16.399C17.737,16.3 17.807,16.222 17.894,16.165C17.981,16.108 18.088,16.079 18.214,16.079C18.256,16.079 18.3,16.082 18.345,16.089C18.39,16.095 18.429,16.103 18.461,16.112L18.461,15.241C18.406,15.219 18.356,15.208 18.311,15.208C18.224,15.208 18.14,15.225 18.059,15.261C17.978,15.296 17.902,15.345 17.831,15.409C17.76,15.473 17.697,15.55 17.642,15.64C17.587,15.73 17.544,15.828 17.511,15.934L17.502,15.934L17.502,15.3L16.847,15.3Z" style="fill:rgb(227,214,158);fill-rule:nonzero;"/>
            <path d="M20.57,17.01C20.57,17.15 20.559,17.287 20.536,17.419C20.513,17.551 20.478,17.667 20.429,17.769C20.381,17.87 20.32,17.95 20.248,18.009C20.175,18.069 20.087,18.099 19.983,18.099C19.883,18.099 19.796,18.069 19.722,18.009C19.647,17.95 19.586,17.87 19.538,17.769C19.489,17.667 19.454,17.551 19.431,17.419C19.408,17.287 19.397,17.15 19.397,17.01C19.397,16.864 19.408,16.726 19.431,16.594C19.454,16.462 19.489,16.345 19.538,16.244C19.586,16.143 19.647,16.062 19.722,16.003C19.796,15.944 19.883,15.914 19.983,15.914C20.087,15.914 20.175,15.944 20.248,16.003C20.32,16.062 20.381,16.143 20.429,16.244C20.478,16.345 20.513,16.462 20.536,16.594C20.559,16.726 20.57,16.864 20.57,17.01ZM18.733,14L18.733,18.712L19.387,18.712L19.387,18.277L19.397,18.277C19.471,18.466 19.581,18.6 19.727,18.679C19.872,18.759 20.037,18.798 20.221,18.798C20.347,18.798 20.471,18.763 20.594,18.693C20.717,18.622 20.828,18.514 20.926,18.369C21.025,18.224 21.105,18.038 21.166,17.811C21.228,17.585 21.258,17.315 21.258,17.003C21.258,16.691 21.228,16.421 21.166,16.194C21.105,15.968 21.025,15.782 20.926,15.637C20.828,15.492 20.717,15.384 20.594,15.313C20.471,15.243 20.347,15.208 20.221,15.208C20.066,15.208 19.916,15.248 19.773,15.33C19.629,15.411 19.515,15.54 19.431,15.716L19.421,15.716L19.421,14L18.733,14Z" style="fill:rgb(227,214,158);fill-rule:nonzero;"/>
        </g>
        <g transform="matrix(-0,-0.653846,-1.333333,0,165.979967,158.910231)">
            <path d="M16.911,20.732L16.911,17.448L13.311,17.448L13.311,20.732L6.615,20.732L6.615,22.497L13.311,22.497L13.311,25.781L16.911,25.781L16.911,22.497L23.607,22.497L23.607,20.732L16.911,20.732Z" style="fill:rgb(227,214,158);fill-rule:nonzero;"/>
        </g>
        <g transform="matrix(0,2.269231,-1.666667,0,176.646633,107.76608)">
            <g opacity="0.46">
                <path d="M6.096,16.132L6.096,14.805L6.929,14.805C7.104,14.805 7.235,14.857 7.322,14.96C7.409,15.064 7.453,15.23 7.453,15.459C7.453,15.696 7.409,15.868 7.322,15.973C7.235,16.079 7.104,16.132 6.929,16.132L6.096,16.132ZM5.334,14L5.334,18.712L6.096,18.712L6.096,16.871L6.857,16.871C7.047,16.871 7.185,16.928 7.269,17.043C7.353,17.157 7.408,17.337 7.433,17.584C7.453,17.773 7.467,17.971 7.477,18.178C7.487,18.385 7.513,18.563 7.555,18.712L8.316,18.712C8.28,18.646 8.253,18.566 8.236,18.471C8.218,18.377 8.205,18.277 8.197,18.171C8.189,18.066 8.183,17.962 8.18,17.861C8.177,17.76 8.173,17.672 8.17,17.597C8.164,17.478 8.152,17.359 8.134,17.241C8.116,17.122 8.088,17.013 8.049,16.914C8.01,16.815 7.96,16.729 7.899,16.656C7.837,16.584 7.76,16.53 7.666,16.495L7.666,16.482C7.86,16.376 8,16.222 8.085,16.02C8.171,15.817 8.214,15.577 8.214,15.3C8.214,15.12 8.19,14.951 8.144,14.795C8.097,14.639 8.029,14.502 7.94,14.383C7.851,14.264 7.744,14.17 7.62,14.102C7.496,14.034 7.356,14 7.201,14L5.334,14Z" style="fill:rgb(227,214,158);fill-rule:nonzero;"/>
                <path d="M10.449,16.64L9.329,16.64C9.332,16.574 9.343,16.499 9.36,16.416C9.378,16.332 9.409,16.253 9.452,16.178C9.496,16.103 9.554,16.04 9.627,15.99C9.7,15.939 9.791,15.914 9.901,15.914C10.069,15.914 10.194,15.976 10.276,16.099C10.359,16.222 10.416,16.402 10.449,16.64ZM9.329,17.234L11.137,17.234C11.15,16.97 11.134,16.717 11.088,16.475C11.043,16.233 10.97,16.017 10.868,15.828C10.766,15.639 10.636,15.488 10.478,15.376C10.319,15.264 10.133,15.208 9.92,15.208C9.73,15.208 9.556,15.254 9.399,15.346C9.242,15.439 9.107,15.565 8.994,15.726C8.881,15.886 8.794,16.077 8.733,16.297C8.671,16.517 8.64,16.754 8.64,17.01C8.64,17.274 8.67,17.516 8.73,17.736C8.79,17.956 8.875,18.145 8.985,18.303C9.094,18.462 9.229,18.584 9.387,18.669C9.545,18.755 9.723,18.798 9.92,18.798C10.205,18.798 10.447,18.71 10.647,18.534C10.848,18.358 10.996,18.066 11.093,17.656L10.487,17.656C10.465,17.762 10.403,17.862 10.303,17.957C10.203,18.051 10.083,18.099 9.944,18.099C9.751,18.099 9.602,18.03 9.498,17.894C9.395,17.758 9.338,17.538 9.329,17.234Z" style="fill:rgb(227,214,158);fill-rule:nonzero;"/>
                <path d="M12.93,18.712L13.779,15.3L13.095,15.3L12.567,17.63L12.557,17.63L12.029,15.3L11.307,15.3L12.165,18.712L12.93,18.712Z" style="fill:rgb(227,214,158);fill-rule:nonzero;"/>
                <path d="M15.752,16.64L14.632,16.64C14.635,16.574 14.646,16.499 14.663,16.416C14.681,16.332 14.712,16.253 14.756,16.178C14.799,16.103 14.857,16.04 14.93,15.99C15.003,15.939 15.094,15.914 15.204,15.914C15.372,15.914 15.497,15.976 15.58,16.099C15.662,16.222 15.719,16.402 15.752,16.64ZM14.632,17.234L16.44,17.234C16.453,16.97 16.437,16.717 16.392,16.475C16.346,16.233 16.273,16.017 16.171,15.828C16.069,15.639 15.939,15.488 15.781,15.376C15.622,15.264 15.437,15.208 15.223,15.208C15.033,15.208 14.859,15.254 14.702,15.346C14.545,15.439 14.411,15.565 14.297,15.726C14.184,15.886 14.097,16.077 14.036,16.297C13.974,16.517 13.944,16.754 13.944,17.01C13.944,17.274 13.973,17.516 14.033,17.736C14.093,17.956 14.178,18.145 14.288,18.303C14.398,18.462 14.532,18.584 14.69,18.669C14.848,18.755 15.026,18.798 15.223,18.798C15.508,18.798 15.75,18.71 15.95,18.534C16.151,18.358 16.299,18.066 16.396,17.656L15.79,17.656C15.768,17.762 15.706,17.862 15.606,17.957C15.506,18.051 15.386,18.099 15.248,18.099C15.054,18.099 14.905,18.03 14.802,17.894C14.698,17.758 14.642,17.538 14.632,17.234Z" style="fill:rgb(227,214,158);fill-rule:nonzero;"/>
                <path d="M16.847,15.3L16.847,18.712L17.536,18.712L17.536,17.175C17.536,17.021 17.547,16.878 17.569,16.746C17.592,16.614 17.63,16.498 17.683,16.399C17.737,16.3 17.807,16.222 17.894,16.165C17.981,16.108 18.088,16.079 18.214,16.079C18.256,16.079 18.3,16.082 18.345,16.089C18.39,16.095 18.429,16.103 18.461,16.112L18.461,15.241C18.406,15.219 18.356,15.208 18.311,15.208C18.224,15.208 18.14,15.225 18.059,15.261C17.978,15.296 17.902,15.345 17.831,15.409C17.76,15.473 17.697,15.55 17.642,15.64C17.587,15.73 17.544,15.828 17.511,15.934L17.502,15.934L17.502,15.3L16.847,15.3Z" style="fill:rgb(227,214,158);fill-rule:nonzero;"/>
                <path d="M20.57,17.01C20.57,17.15 20.559,17.287 20.536,17.419C20.513,17.551 20.478,17.667 20.429,17.769C20.381,17.87 20.32,17.95 20.248,18.009C20.175,18.069 20.087,18.099 19.983,18.099C19.883,18.099 19.796,18.069 19.722,18.009C19.647,17.95 19.586,17.87 19.538,17.769C19.489,17.667 19.454,17.551 19.431,17.419C19.408,17.287 19.397,17.15 19.397,17.01C19.397,16.864 19.408,16.726 19.431,16.594C19.454,16.462 19.489,16.345 19.538,16.244C19.586,16.143 19.647,16.062 19.722,16.003C19.796,15.944 19.883,15.914 19.983,15.914C20.087,15.914 20.175,15.944 20.248,16.003C20.32,16.062 20.381,16.143 20.429,16.244C20.478,16.345 20.513,16.462 20.536,16.594C20.559,16.726 20.57,16.864 20.57,17.01ZM18.733,14L18.733,18.712L19.387,18.712L19.387,18.277L19.397,18.277C19.471,18.466 19.581,18.6 19.727,18.679C19.872,18.759 20.037,18.798 20.221,18.798C20.347,18.798 20.471,18.763 20.594,18.693C20.717,18.622 20.828,18.514 20.926,18.369C21.025,18.224 21.105,18.038 21.166,17.811C21.228,17.585 21.258,17.315 21.258,17.003C21.258,16.691 21.228,16.421 21.166,16.194C21.105,15.968 21.025,15.782 20.926,15.637C20.828,15.492 20.717,15.384 20.594,15.313C20.471,15.243 20.347,15.208 20.221,15.208C20.066,15.208 19.916,15.248 19.773,15.33C19.629,15.411 19.515,15.54 19.431,15.716L19.421,15.716L19.421,14L18.733,14Z" style="fill:rgb(227,214,158);fill-rule:nonzero;"/>
            </g>
        </g>
        <g transform="matrix(-0,-0.653846,-1.333333,0,165.979967,159.381465)">
            <path d="M16.911,20.732L16.911,17.448L13.311,17.448L13.311,20.732L6.615,20.732L6.615,22.497L13.311,22.497L13.311,25.781L16.911,25.781L16.911,22.497L23.607,22.497L23.607,20.732L16.911,20.732Z" style="fill:rgb(227,214,158);fill-opacity:0.46;fill-rule:nonzero;"/>
        </g>
        <g transform="matrix(0,2.269231,-1.666667,0,176.584512,108.335281)">
            <g opacity="0.29">
                <path d="M6.096,16.132L6.096,14.805L6.929,14.805C7.104,14.805 7.235,14.857 7.322,14.96C7.409,15.064 7.453,15.23 7.453,15.459C7.453,15.696 7.409,15.868 7.322,15.973C7.235,16.079 7.104,16.132 6.929,16.132L6.096,16.132ZM5.334,14L5.334,18.712L6.096,18.712L6.096,16.871L6.857,16.871C7.047,16.871 7.185,16.928 7.269,17.043C7.353,17.157 7.408,17.337 7.433,17.584C7.453,17.773 7.467,17.971 7.477,18.178C7.487,18.385 7.513,18.563 7.555,18.712L8.316,18.712C8.28,18.646 8.253,18.566 8.236,18.471C8.218,18.377 8.205,18.277 8.197,18.171C8.189,18.066 8.183,17.962 8.18,17.861C8.177,17.76 8.173,17.672 8.17,17.597C8.164,17.478 8.152,17.359 8.134,17.241C8.116,17.122 8.088,17.013 8.049,16.914C8.01,16.815 7.96,16.729 7.899,16.656C7.837,16.584 7.76,16.53 7.666,16.495L7.666,16.482C7.86,16.376 8,16.222 8.085,16.02C8.171,15.817 8.214,15.577 8.214,15.3C8.214,15.12 8.19,14.951 8.144,14.795C8.097,14.639 8.029,14.502 7.94,14.383C7.851,14.264 7.744,14.17 7.62,14.102C7.496,14.034 7.356,14 7.201,14L5.334,14Z" style="fill:rgb(227,214,158);fill-rule:nonzero;"/>
                <path d="M10.449,16.64L9.329,16.64C9.332,16.574 9.343,16.499 9.36,16.416C9.378,16.332 9.409,16.253 9.452,16.178C9.496,16.103 9.554,16.04 9.627,15.99C9.7,15.939 9.791,15.914 9.901,15.914C10.069,15.914 10.194,15.976 10.276,16.099C10.359,16.222 10.416,16.402 10.449,16.64ZM9.329,17.234L11.137,17.234C11.15,16.97 11.134,16.717 11.088,16.475C11.043,16.233 10.97,16.017 10.868,15.828C10.766,15.639 10.636,15.488 10.478,15.376C10.319,15.264 10.133,15.208 9.92,15.208C9.73,15.208 9.556,15.254 9.399,15.346C9.242,15.439 9.107,15.565 8.994,15.726C8.881,15.886 8.794,16.077 8.733,16.297C8.671,16.517 8.64,16.754 8.64,17.01C8.64,17.274 8.67,17.516 8.73,17.736C8.79,17.956 8.875,18.145 8.985,18.303C9.094,18.462 9.229,18.584 9.387,18.669C9.545,18.755 9.723,18.798 9.92,18.798C10.205,18.798 10.447,18.71 10.647,18.534C10.848,18.358 10.996,18.066 11.093,17.656L10.487,17.656C10.465,17.762 10.403,17.862 10.303,17.957C10.203,18.051 10.083,18.099 9.944,18.099C9.751,18.099 9.602,18.03 9.498,17.894C9.395,17.758 9.338,17.538 9.329,17.234Z" style="fill:rgb(227,214,158);fill-rule:nonzero;"/>
                <path d="M12.93,18.712L13.779,15.3L13.095,15.3L12.567,17.63L12.557,17.63L12.029,15.3L11.307,15.3L12.165,18.712L12.93,18.712Z" style="fill:rgb(227,214,158);fill-rule:nonzero;"/>
                <path d="M15.752,16.64L14.632,16.64C14.635,16.574 14.646,16.499 14.663,16.416C14.681,16.332 14.712,16.253 14.756,16.178C14.799,16.103 14.857,16.04 14.93,15.99C15.003,15.939 15.094,15.914 15.204,15.914C15.372,15.914 15.497,15.976 15.58,16.099C15.662,16.222 15.719,16.402 15.752,16.64ZM14.632,17.234L16.44,17.234C16.453,16.97 16.437,16.717 16.392,16.475C16.346,16.233 16.273,16.017 16.171,15.828C16.069,15.639 15.939,15.488 15.781,15.376C15.622,15.264 15.437,15.208 15.223,15.208C15.033,15.208 14.859,15.254 14.702,15.346C14.545,15.439 14.411,15.565 14.297,15.726C14.184,15.886 14.097,16.077 14.036,16.297C13.974,16.517 13.944,16.754 13.944,17.01C13.944,17.274 13.973,17.516 14.033,17.736C14.093,17.956 14.178,18.145 14.288,18.303C14.398,18.462 14.532,18.584 14.69,18.669C14.848,18.755 15.026,18.798 15.223,18.798C15.508,18.798 15.75,18.71 15.95,18.534C16.151,18.358 16.299,18.066 16.396,17.656L15.79,17.656C15.768,17.762 15.706,17.862 15.606,17.957C15.506,18.051 15.386,18.099 15.248,18.099C15.054,18.099 14.905,18.03 14.802,17.894C14.698,17.758 14.642,17.538 14.632,17.234Z" style="fill:rgb(227,214,158);fill-rule:nonzero;"/>
                <path d="M16.847,15.3L16.847,18.712L17.536,18.712L17.536,17.175C17.536,17.021 17.547,16.878 17.569,16.746C17.592,16.614 17.63,16.498 17.683,16.399C17.737,16.3 17.807,16.222 17.894,16.165C17.981,16.108 18.088,16.079 18.214,16.079C18.256,16.079 18.3,16.082 18.345,16.089C18.39,16.095 18.429,16.103 18.461,16.112L18.461,15.241C18.406,15.219 18.356,15.208 18.311,15.208C18.224,15.208 18.14,15.225 18.059,15.261C17.978,15.296 17.902,15.345 17.831,15.409C17.76,15.473 17.697,15.55 17.642,15.64C17.587,15.73 17.544,15.828 17.511,15.934L17.502,15.934L17.502,15.3L16.847,15.3Z" style="fill:rgb(227,214,158);fill-rule:nonzero;"/>
                <path d="M20.57,17.01C20.57,17.15 20.559,17.287 20.536,17.419C20.513,17.551 20.478,17.667 20.429,17.769C20.381,17.87 20.32,17.95 20.248,18.009C20.175,18.069 20.087,18.099 19.983,18.099C19.883,18.099 19.796,18.069 19.722,18.009C19.647,17.95 19.586,17.87 19.538,17.769C19.489,17.667 19.454,17.551 19.431,17.419C19.408,17.287 19.397,17.15 19.397,17.01C19.397,16.864 19.408,16.726 19.431,16.594C19.454,16.462 19.489,16.345 19.538,16.244C19.586,16.143 19.647,16.062 19.722,16.003C19.796,15.944 19.883,15.914 19.983,15.914C20.087,15.914 20.175,15.944 20.248,16.003C20.32,16.062 20.381,16.143 20.429,16.244C20.478,16.345 20.513,16.462 20.536,16.594C20.559,16.726 20.57,16.864 20.57,17.01ZM18.733,14L18.733,18.712L19.387,18.712L19.387,18.277L19.397,18.277C19.471,18.466 19.581,18.6 19.727,18.679C19.872,18.759 20.037,18.798 20.221,18.798C20.347,18.798 20.471,18.763 20.594,18.693C20.717,18.622 20.828,18.514 20.926,18.369C21.025,18.224 21.105,18.038 21.166,17.811C21.228,17.585 21.258,17.315 21.258,17.003C21.258,16.691 21.228,16.421 21.166,16.194C21.105,15.968 21.025,15.782 20.926,15.637C20.828,15.492 20.717,15.384 20.594,15.313C20.471,15.243 20.347,15.208 20.221,15.208C20.066,15.208 19.916,15.248 19.773,15.33C19.629,15.411 19.515,15.54 19.431,15.716L19.421,15.716L19.421,14L18.733,14Z" style="fill:rgb(227,214,158);fill-rule:nonzero;"/>
            </g>
        </g>
        <g transform="matrix(-0,-0.653846,-1.333333,0,165.917845,159.950666)">
            <path d="M16.911,20.732L16.911,17.448L13.311,17.448L13.311,20.732L6.615,20.732L6.615,22.497L13.311,22.497L13.311,25.781L16.911,25.781L16.911,22.497L23.607,22.497L23.607,20.732L16.911,20.732Z" style="fill:rgb(227,214,158);fill-opacity:0.29;fill-rule:nonzero;"/>
        </g>
        <g transform="matrix(0,2.269231,-1.666667,0,176.600669,108.928501)">
            <g opacity="0.19">
                <path d="M6.096,16.132L6.096,14.805L6.929,14.805C7.104,14.805 7.235,14.857 7.322,14.96C7.409,15.064 7.453,15.23 7.453,15.459C7.453,15.696 7.409,15.868 7.322,15.973C7.235,16.079 7.104,16.132 6.929,16.132L6.096,16.132ZM5.334,14L5.334,18.712L6.096,18.712L6.096,16.871L6.857,16.871C7.047,16.871 7.185,16.928 7.269,17.043C7.353,17.157 7.408,17.337 7.433,17.584C7.453,17.773 7.467,17.971 7.477,18.178C7.487,18.385 7.513,18.563 7.555,18.712L8.316,18.712C8.28,18.646 8.253,18.566 8.236,18.471C8.218,18.377 8.205,18.277 8.197,18.171C8.189,18.066 8.183,17.962 8.18,17.861C8.177,17.76 8.173,17.672 8.17,17.597C8.164,17.478 8.152,17.359 8.134,17.241C8.116,17.122 8.088,17.013 8.049,16.914C8.01,16.815 7.96,16.729 7.899,16.656C7.837,16.584 7.76,16.53 7.666,16.495L7.666,16.482C7.86,16.376 8,16.222 8.085,16.02C8.171,15.817 8.214,15.577 8.214,15.3C8.214,15.12 8.19,14.951 8.144,14.795C8.097,14.639 8.029,14.502 7.94,14.383C7.851,14.264 7.744,14.17 7.62,14.102C7.496,14.034 7.356,14 7.201,14L5.334,14Z" style="fill:rgb(227,214,158);fill-rule:nonzero;"/>
                <path d="M10.449,16.64L9.329,16.64C9.332,16.574 9.343,16.499 9.36,16.416C9.378,16.332 9.409,16.253 9.452,16.178C9.496,16.103 9.554,16.04 9.627,15.99C9.7,15.939 9.791,15.914 9.901,15.914C10.069,15.914 10.194,15.976 10.276,16.099C10.359,16.222 10.416,16.402 10.449,16.64ZM9.329,17.234L11.137,17.234C11.15,16.97 11.134,16.717 11.088,16.475C11.043,16.233 10.97,16.017 10.868,15.828C10.766,15.639 10.636,15.488 10.478,15.376C10.319,15.264 10.133,15.208 9.92,15.208C9.73,15.208 9.556,15.254 9.399,15.346C9.242,15.439 9.107,15.565 8.994,15.726C8.881,15.886 8.794,16.077 8.733,16.297C8.671,16.517 8.64,16.754 8.64,17.01C8.64,17.274 8.67,17.516 8.73,17.736C8.79,17.956 8.875,18.145 8.985,18.303C9.094,18.462 9.229,18.584 9.387,18.669C9.545,18.755 9.723,18.798 9.92,18.798C10.205,18.798 10.447,18.71 10.647,18.534C10.848,18.358 10.996,18.066 11.093,17.656L10.487,17.656C10.465,17.762 10.403,17.862 10.303,17.957C10.203,18.051 10.083,18.099 9.944,18.099C9.751,18.099 9.602,18.03 9.498,17.894C9.395,17.758 9.338,17.538 9.329,17.234Z" style="fill:rgb(227,214,158);fill-rule:nonzero;"/>
                <path d="M12.93,18.712L13.779,15.3L13.095,15.3L12.567,17.63L12.557,17.63L12.029,15.3L11.307,15.3L12.165,18.712L12.93,18.712Z" style="fill:rgb(227,214,158);fill-rule:nonzero;"/>
                <path d="M15.752,16.64L14.632,16.64C14.635,16.574 14.646,16.499 14.663,16.416C14.681,16.332 14.712,16.253 14.756,16.178C14.799,16.103 14.857,16.04 14.93,15.99C15.003,15.939 15.094,15.914 15.204,15.914C15.372,15.914 15.497,15.976 15.58,16.099C15.662,16.222 15.719,16.402 15.752,16.64ZM14.632,17.234L16.44,17.234C16.453,16.97 16.437,16.717 16.392,16.475C16.346,16.233 16.273,16.017 16.171,15.828C16.069,15.639 15.939,15.488 15.781,15.376C15.622,15.264 15.437,15.208 15.223,15.208C15.033,15.208 14.859,15.254 14.702,15.346C14.545,15.439 14.411,15.565 14.297,15.726C14.184,15.886 14.097,16.077 14.036,16.297C13.974,16.517 13.944,16.754 13.944,17.01C13.944,17.274 13.973,17.516 14.033,17.736C14.093,17.956 14.178,18.145 14.288,18.303C14.398,18.462 14.532,18.584 14.69,18.669C14.848,18.755 15.026,18.798 15.223,18.798C15.508,18.798 15.75,18.71 15.95,18.534C16.151,18.358 16.299,18.066 16.396,17.656L15.79,17.656C15.768,17.762 15.706,17.862 15.606,17.957C15.506,18.051 15.386,18.099 15.248,18.099C15.054,18.099 14.905,18.03 14.802,17.894C14.698,17.758 14.642,17.538 14.632,17.234Z" style="fill:rgb(227,214,158);fill-rule:nonzero;"/>
                <path d="M16.847,15.3L16.847,18.712L17.536,18.712L17.536,17.175C17.536,17.021 17.547,16.878 17.569,16.746C17.592,16.614 17.63,16.498 17.683,16.399C17.737,16.3 17.807,16.222 17.894,16.165C17.981,16.108 18.088,16.079 18.214,16.079C18.256,16.079 18.3,16.082 18.345,16.089C18.39,16.095 18.429,16.103 18.461,16.112L18.461,15.241C18.406,15.219 18.356,15.208 18.311,15.208C18.224,15.208 18.14,15.225 18.059,15.261C17.978,15.296 17.902,15.345 17.831,15.409C17.76,15.473 17.697,15.55 17.642,15.64C17.587,15.73 17.544,15.828 17.511,15.934L17.502,15.934L17.502,15.3L16.847,15.3Z" style="fill:rgb(227,214,158);fill-rule:nonzero;"/>
                <path d="M20.57,17.01C20.57,17.15 20.559,17.287 20.536,17.419C20.513,17.551 20.478,17.667 20.429,17.769C20.381,17.87 20.32,17.95 20.248,18.009C20.175,18.069 20.087,18.099 19.983,18.099C19.883,18.099 19.796,18.069 19.722,18.009C19.647,17.95 19.586,17.87 19.538,17.769C19.489,17.667 19.454,17.551 19.431,17.419C19.408,17.287 19.397,17.15 19.397,17.01C19.397,16.864 19.408,16.726 19.431,16.594C19.454,16.462 19.489,16.345 19.538,16.244C19.586,16.143 19.647,16.062 19.722,16.003C19.796,15.944 19.883,15.914 19.983,15.914C20.087,15.914 20.175,15.944 20.248,16.003C20.32,16.062 20.381,16.143 20.429,16.244C20.478,16.345 20.513,16.462 20.536,16.594C20.559,16.726 20.57,16.864 20.57,17.01ZM18.733,14L18.733,18.712L19.387,18.712L19.387,18.277L19.397,18.277C19.471,18.466 19.581,18.6 19.727,18.679C19.872,18.759 20.037,18.798 20.221,18.798C20.347,18.798 20.471,18.763 20.594,18.693C20.717,18.622 20.828,18.514 20.926,18.369C21.025,18.224 21.105,18.038 21.166,17.811C21.228,17.585 21.258,17.315 21.258,17.003C21.258,16.691 21.228,16.421 21.166,16.194C21.105,15.968 21.025,15.782 20.926,15.637C20.828,15.492 20.717,15.384 20.594,15.313C20.471,15.243 20.347,15.208 20.221,15.208C20.066,15.208 19.916,15.248 19.773,15.33C19.629,15.411 19.515,15.54 19.431,15.716L19.421,15.716L19.421,14L18.733,14Z" style="fill:rgb(227,214,158);fill-rule:nonzero;"/>
            </g>
        </g>
        <g transform="matrix(-0,-0.653846,-1.333333,0,165.934002,160.543886)">
            <path d="M16.911,20.732L16.911,17.448L13.311,17.448L13.311,20.732L6.615,20.732L6.615,22.497L13.311,22.497L13.311,25.781L16.911,25.781L16.911,22.497L23.607,22.497L23.607,20.732L16.911,20.732Z" style="fill:rgb(227,214,158);fill-opacity:0.19;fill-rule:nonzero;"/>
        </g>
        <g transform="matrix(0,2.269231,-1.666667,0,176.600669,109.486298)">
            <g opacity="0.08">
                <path d="M6.096,16.132L6.096,14.805L6.929,14.805C7.104,14.805 7.235,14.857 7.322,14.96C7.409,15.064 7.453,15.23 7.453,15.459C7.453,15.696 7.409,15.868 7.322,15.973C7.235,16.079 7.104,16.132 6.929,16.132L6.096,16.132ZM5.334,14L5.334,18.712L6.096,18.712L6.096,16.871L6.857,16.871C7.047,16.871 7.185,16.928 7.269,17.043C7.353,17.157 7.408,17.337 7.433,17.584C7.453,17.773 7.467,17.971 7.477,18.178C7.487,18.385 7.513,18.563 7.555,18.712L8.316,18.712C8.28,18.646 8.253,18.566 8.236,18.471C8.218,18.377 8.205,18.277 8.197,18.171C8.189,18.066 8.183,17.962 8.18,17.861C8.177,17.76 8.173,17.672 8.17,17.597C8.164,17.478 8.152,17.359 8.134,17.241C8.116,17.122 8.088,17.013 8.049,16.914C8.01,16.815 7.96,16.729 7.899,16.656C7.837,16.584 7.76,16.53 7.666,16.495L7.666,16.482C7.86,16.376 8,16.222 8.085,16.02C8.171,15.817 8.214,15.577 8.214,15.3C8.214,15.12 8.19,14.951 8.144,14.795C8.097,14.639 8.029,14.502 7.94,14.383C7.851,14.264 7.744,14.17 7.62,14.102C7.496,14.034 7.356,14 7.201,14L5.334,14Z" style="fill:rgb(227,214,158);fill-rule:nonzero;"/>
                <path d="M10.449,16.64L9.329,16.64C9.332,16.574 9.343,16.499 9.36,16.416C9.378,16.332 9.409,16.253 9.452,16.178C9.496,16.103 9.554,16.04 9.627,15.99C9.7,15.939 9.791,15.914 9.901,15.914C10.069,15.914 10.194,15.976 10.276,16.099C10.359,16.222 10.416,16.402 10.449,16.64ZM9.329,17.234L11.137,17.234C11.15,16.97 11.134,16.717 11.088,16.475C11.043,16.233 10.97,16.017 10.868,15.828C10.766,15.639 10.636,15.488 10.478,15.376C10.319,15.264 10.133,15.208 9.92,15.208C9.73,15.208 9.556,15.254 9.399,15.346C9.242,15.439 9.107,15.565 8.994,15.726C8.881,15.886 8.794,16.077 8.733,16.297C8.671,16.517 8.64,16.754 8.64,17.01C8.64,17.274 8.67,17.516 8.73,17.736C8.79,17.956 8.875,18.145 8.985,18.303C9.094,18.462 9.229,18.584 9.387,18.669C9.545,18.755 9.723,18.798 9.92,18.798C10.205,18.798 10.447,18.71 10.647,18.534C10.848,18.358 10.996,18.066 11.093,17.656L10.487,17.656C10.465,17.762 10.403,17.862 10.303,17.957C10.203,18.051 10.083,18.099 9.944,18.099C9.751,18.099 9.602,18.03 9.498,17.894C9.395,17.758 9.338,17.538 9.329,17.234Z" style="fill:rgb(227,214,158);fill-rule:nonzero;"/>
                <path d="M12.93,18.712L13.779,15.3L13.095,15.3L12.567,17.63L12.557,17.63L12.029,15.3L11.307,15.3L12.165,18.712L12.93,18.712Z" style="fill:rgb(227,214,158);fill-rule:nonzero;"/>
                <path d="M15.752,16.64L14.632,16.64C14.635,16.574 14.646,16.499 14.663,16.416C14.681,16.332 14.712,16.253 14.756,16.178C14.799,16.103 14.857,16.04 14.93,15.99C15.003,15.939 15.094,15.914 15.204,15.914C15.372,15.914 15.497,15.976 15.58,16.099C15.662,16.222 15.719,16.402 15.752,16.64ZM14.632,17.234L16.44,17.234C16.453,16.97 16.437,16.717 16.392,16.475C16.346,16.233 16.273,16.017 16.171,15.828C16.069,15.639 15.939,15.488 15.781,15.376C15.622,15.264 15.437,15.208 15.223,15.208C15.033,15.208 14.859,15.254 14.702,15.346C14.545,15.439 14.411,15.565 14.297,15.726C14.184,15.886 14.097,16.077 14.036,16.297C13.974,16.517 13.944,16.754 13.944,17.01C13.944,17.274 13.973,17.516 14.033,17.736C14.093,17.956 14.178,18.145 14.288,18.303C14.398,18.462 14.532,18.584 14.69,18.669C14.848,18.755 15.026,18.798 15.223,18.798C15.508,18.798 15.75,18.71 15.95,18.534C16.151,18.358 16.299,18.066 16.396,17.656L15.79,17.656C15.768,17.762 15.706,17.862 15.606,17.957C15.506,18.051 15.386,18.099 15.248,18.099C15.054,18.099 14.905,18.03 14.802,17.894C14.698,17.758 14.642,17.538 14.632,17.234Z" style="fill:rgb(227,214,158);fill-rule:nonzero;"/>
                <path d="M16.847,15.3L16.847,18.712L17.536,18.712L17.536,17.175C17.536,17.021 17.547,16.878 17.569,16.746C17.592,16.614 17.63,16.498 17.683,16.399C17.737,16.3 17.807,16.222 17.894,16.165C17.981,16.108 18.088,16.079 18.214,16.079C18.256,16.079 18.3,16.082 18.345,16.089C18.39,16.095 18.429,16.103 18.461,16.112L18.461,15.241C18.406,15.219 18.356,15.208 18.311,15.208C18.224,15.208 18.14,15.225 18.059,15.261C17.978,15.296 17.902,15.345 17.831,15.409C17.76,15.473 17.697,15.55 17.642,15.64C17.587,15.73 17.544,15.828 17.511,15.934L17.502,15.934L17.502,15.3L16.847,15.3Z" style="fill:rgb(227,214,158);fill-rule:nonzero;"/>
                <path d="M20.57,17.01C20.57,17.15 20.559,17.287 20.536,17.419C20.513,17.551 20.478,17.667 20.429,17.769C20.381,17.87 20.32,17.95 20.248,18.009C20.175,18.069 20.087,18.099 19.983,18.099C19.883,18.099 19.796,18.069 19.722,18.009C19.647,17.95 19.586,17.87 19.538,17.769C19.489,17.667 19.454,17.551 19.431,17.419C19.408,17.287 19.397,17.15 19.397,17.01C19.397,16.864 19.408,16.726 19.431,16.594C19.454,16.462 19.489,16.345 19.538,16.244C19.586,16.143 19.647,16.062 19.722,16.003C19.796,15.944 19.883,15.914 19.983,15.914C20.087,15.914 20.175,15.944 20.248,16.003C20.32,16.062 20.381,16.143 20.429,16.244C20.478,16.345 20.513,16.462 20.536,16.594C20.559,16.726 20.57,16.864 20.57,17.01ZM18.733,14L18.733,18.712L19.387,18.712L19.387,18.277L19.397,18.277C19.471,18.466 19.581,18.6 19.727,18.679C19.872,18.759 20.037,18.798 20.221,18.798C20.347,18.798 20.471,18.763 20.594,18.693C20.717,18.622 20.828,18.514 20.926,18.369C21.025,18.224 21.105,18.038 21.166,17.811C21.228,17.585 21.258,17.315 21.258,17.003C21.258,16.691 21.228,16.421 21.166,16.194C21.105,15.968 21.025,15.782 20.926,15.637C20.828,15.492 20.717,15.384 20.594,15.313C20.471,15.243 20.347,15.208 20.221,15.208C20.066,15.208 19.916,15.248 19.773,15.33C19.629,15.411 19.515,15.54 19.431,15.716L19.421,15.716L19.421,14L18.733,14Z" style="fill:rgb(227,214,158);fill-rule:nonzero;"/>
            </g>
        </g>
        <g transform="matrix(-0,-0.653846,-1.333333,0,165.934002,161.101682)">
            <path d="M16.911,20.732L16.911,17.448L13.311,17.448L13.311,20.732L6.615,20.732L6.615,22.497L13.311,22.497L13.311,25.781L16.911,25.781L16.911,22.497L23.607,22.497L23.607,20.732L16.911,20.732Z" style="fill:rgb(227,214,158);fill-opacity:0.08;fill-rule:nonzero;"/>
        </g>
    </g>
</svg>
