<?xml version="1.0" encoding="UTF-8" standalone="no"?>
<!DOCTYPE svg PUBLIC "-//W3C//DTD SVG 1.1//EN" "http://www.w3.org/Graphics/SVG/1.1/DTD/svg11.dtd">
<svg width="100%" height="100%" viewBox="0 0 32 54" version="1.1" xmlns="http://www.w3.org/2000/svg" xmlns:xlink="http://www.w3.org/1999/xlink" xml:space="preserve" xmlns:serif="http://www.serif.com/" style="fill-rule:evenodd;clip-rule:evenodd;stroke-linejoin:round;stroke-miterlimit:2;">
    <g transform="matrix(1,0,0,1,-124.8133,-242.044)">
        <g>
            <g>
                <path d="M125.983,269.256L124.849,268.123L124.849,244.879L124.907,244.308L125.079,243.76L125.357,243.259L125.731,242.824L126.184,242.473L126.699,242.22L127.255,242.076L127.684,242.044L148.943,242.044L149.85,242.102L150.741,242.276L151.603,242.562L152.421,242.956L153.182,243.452L153.874,244.04L154.484,244.712L155.004,245.457L155.423,246.262L155.737,247.114L155.94,248L156.027,248.903L156.03,249.131L156.03,293.635L155.973,294.14L155.806,294.618L155.536,295.049L155.176,295.408L154.746,295.678L154.267,295.845L153.762,295.902L130.802,295.902L130.297,295.845L129.818,295.678L129.388,295.407L129.029,295.048L128.759,294.618L128.591,294.138L128.534,293.635L128.534,282.622L128.533,282.582L128.461,282.278L128.285,282.02L125.098,278.079L124.921,277.821L124.85,277.516L124.849,277.477L124.849,273.792L124.903,273.625L125.045,273.522L125.133,273.509L126.55,273.509L126.638,273.494L126.779,273.392L126.834,273.225L126.834,270.107L124.849,268.123L124.849,252.816" style="fill:rgb(0,106,82);fill-rule:nonzero;"/>
                <path d="M124.813,268.123C124.813,268.114 124.817,268.104 124.824,268.098C124.838,268.083 124.861,268.083 124.875,268.098L126.009,269.231C126.022,269.245 126.022,269.268 126.009,269.282C125.995,269.296 125.971,269.296 125.958,269.282L124.824,268.148C124.817,268.142 124.813,268.132 124.813,268.123Z" style="fill:rgb(0,106,82);fill-rule:nonzero;"/>
            </g>
            <g>
                <path d="M150.645,261.152L150.645,259.007L144.188,259.007L144.188,257.555L150.645,257.555L150.645,255.443L151.953,255.443L151.953,261.152L150.645,261.152Z" style="fill:rgb(227,214,158);fill-rule:nonzero;"/>
                <path d="M147.477,268.357L147.301,268.357C146.553,268.357 146.043,268.313 145.772,268.225C145.302,268.071 144.888,267.741 144.528,267.235C144.169,266.729 143.989,266.043 143.989,265.178C143.989,264.093 144.298,263.272 144.913,262.714C145.141,262.487 145.42,262.322 145.749,262.219C146.014,262.139 146.541,262.098 147.334,262.098L151.953,262.098L151.953,263.561L147.18,263.561C146.762,263.561 146.476,263.587 146.321,263.638C145.705,263.829 145.398,264.36 145.398,265.233C145.398,266.069 145.691,266.593 146.277,266.806C146.468,266.872 146.795,266.905 147.257,266.905L151.953,266.905L151.953,268.357L147.477,268.357L147.477,268.357Z" style="fill:rgb(227,214,158);fill-rule:nonzero;"/>
                <path d="M144.188,275.573L144.188,273.912L147.07,272.383L147.07,271.074L144.188,271.074L144.188,269.633L151.953,269.633L151.953,272.812C151.953,273.729 151.638,274.425 151.008,274.902C150.59,275.217 150.084,275.375 149.489,275.375C149.174,275.375 148.885,275.328 148.62,275.232C148.386,275.144 148.146,274.988 147.901,274.765C147.655,274.541 147.473,274.235 147.356,273.846L144.188,275.573ZM149.501,273.901C149.934,273.901 150.256,273.74 150.469,273.417C150.622,273.183 150.7,272.794 150.7,272.251L150.7,271.074L148.28,271.074L148.28,271.591C148.28,271.943 148.282,272.2 148.286,272.361C148.289,272.522 148.305,272.695 148.335,272.878C148.364,273.061 148.409,273.208 148.467,273.318C148.679,273.707 149.024,273.901 149.501,273.901L149.501,273.901Z" style="fill:rgb(227,214,158);fill-rule:nonzero;"/>
                <rect x="144.188" y="276.673" width="7.766" height="1.43" style="fill:rgb(227,214,158);fill-rule:nonzero;"/>
                <path d="M144.188,285.363L144.188,284.087L149.633,280.688L144.188,280.776L144.188,279.357L151.953,279.357L151.953,280.666L146.476,284.109L151.953,283.933L151.953,285.363L144.188,285.363Z" style="fill:rgb(227,214,158);fill-rule:nonzero;"/>
                <path d="M144.188,293.393L144.188,292.15L144.848,292.139C144.276,291.523 143.99,290.812 143.99,290.005C143.99,289.015 144.316,288.186 144.969,287.519C145.739,286.749 146.747,286.364 147.993,286.364C149.094,286.364 150.029,286.668 150.799,287.277C150.938,287.387 151.074,287.515 151.205,287.662C151.338,287.809 151.481,287.999 151.635,288.234C151.788,288.469 151.913,288.751 152.009,289.081C152.104,289.411 152.152,289.759 152.152,290.126C152.152,290.566 152.075,290.991 151.921,291.402C151.547,292.355 150.861,293.019 149.863,293.393L149.314,292.007C150.333,291.647 150.843,291.017 150.843,290.115C150.843,289.558 150.655,289.092 150.281,288.718C149.754,288.205 149.006,287.948 148.037,287.948C147.048,287.948 146.303,288.245 145.805,288.839C145.511,289.191 145.365,289.627 145.365,290.148C145.365,290.544 145.46,290.897 145.651,291.209C145.841,291.521 146.113,291.75 146.465,291.897C146.633,291.97 146.865,292.025 147.158,292.062L147.158,290.126L148.434,290.126L148.434,293.393L144.188,293.393L144.188,293.393Z" style="fill:rgb(227,214,158);fill-rule:nonzero;"/>
                <path d="M135.188,255.422L135.188,254.002L141.568,254.145L135.188,252.462L135.188,251.153L141.568,249.47L135.188,249.613L135.188,248.194L142.953,248.194L142.953,250.307L137.19,251.824L142.953,253.32L142.953,255.422L135.188,255.422Z" style="fill:rgb(227,214,158);fill-rule:nonzero;"/>
                <path d="M135.188,263.122L135.188,261.57L136.705,261.12L136.705,258.204L135.188,257.753L135.188,256.191L142.953,258.82L142.953,260.471L135.188,263.121ZM137.982,260.734L141.557,259.667L137.982,258.589L137.982,260.734Z" style="fill:rgb(227,214,158);fill-rule:nonzero;"/>
                <path d="M137.355,270.128C136.937,269.952 136.588,269.758 136.31,269.545C135.43,268.856 134.989,267.932 134.989,266.773C134.989,266.208 135.1,265.688 135.32,265.211C135.437,264.962 135.587,264.727 135.771,264.507C135.954,264.287 136.193,264.069 136.486,263.853C136.779,263.636 137.152,263.464 137.602,263.336C138.053,263.207 138.55,263.143 139.093,263.143C140.112,263.143 140.963,263.381 141.645,263.858C142.65,264.555 143.152,265.545 143.152,266.828C143.152,267.987 142.74,268.859 141.92,269.446C141.612,269.651 141.223,269.831 140.754,269.985L140.38,268.544C140.592,268.522 140.798,268.456 140.995,268.346C141.267,268.2 141.474,267.993 141.617,267.725C141.76,267.457 141.828,267.165 141.821,266.85C141.821,266.527 141.751,266.227 141.612,265.948C141.443,265.611 141.152,265.321 140.738,265.079C140.323,264.837 139.785,264.716 139.126,264.716C138.378,264.716 137.765,264.87 137.288,265.178C137.047,265.339 136.856,265.526 136.717,265.739C136.482,266.077 136.365,266.454 136.365,266.872C136.365,267.444 136.599,267.921 137.069,268.302C137.142,268.361 137.3,268.463 137.541,268.61C137.63,268.647 137.758,268.694 137.927,268.753L137.355,270.128L137.355,270.128Z" style="fill:rgb(227,214,158);fill-rule:nonzero;"/>
                <path d="M135.188,277.278L135.188,275.815L138.719,275.815L138.719,272.482L135.188,272.482L135.188,271.019L142.953,271.019L142.953,272.482L140.028,272.482L140.028,275.815L142.953,275.815L142.953,277.278L135.188,277.278Z" style="fill:rgb(227,214,158);fill-rule:nonzero;"/>
                <rect x="135.188" y="278.488" width="7.766" height="1.43" style="fill:rgb(227,214,158);fill-rule:nonzero;"/>
                <path d="M135.188,287.123L135.188,285.847L140.633,282.448L135.188,282.536L135.188,281.117L142.953,281.117L142.953,282.426L137.476,285.869L142.953,285.693L142.953,287.123L135.188,287.123Z" style="fill:rgb(227,214,158);fill-rule:nonzero;"/>
                <path d="M135.188,293.888L135.188,288.091L142.953,288.091L142.953,293.613L141.655,293.613L141.655,289.521L139.829,289.521L139.829,293.272L138.575,293.272L138.575,289.521L136.496,289.521L136.496,293.888L135.188,293.888L135.188,293.888Z" style="fill:rgb(227,214,158);fill-rule:nonzero;"/>
            </g>
            <g>
                <path d="M133.081,249.478C133.081,249.694 133.044,249.887 132.969,250.055C132.894,250.223 132.793,250.366 132.667,250.486C132.541,250.606 132.396,250.698 132.231,250.761C132.066,250.824 131.893,250.855 131.714,250.855C131.533,250.855 131.361,250.824 131.196,250.761C131.031,250.698 130.885,250.606 130.759,250.486C130.633,250.366 130.533,250.222 130.458,250.055C130.383,249.887 130.345,249.694 130.345,249.478L130.345,245.717C130.345,245.501 130.383,245.309 130.458,245.141C130.533,244.972 130.633,244.828 130.759,244.709C130.885,244.589 131.031,244.497 131.196,244.434C131.361,244.371 131.533,244.34 131.714,244.34C131.893,244.34 132.066,244.371 132.231,244.434C132.396,244.497 132.541,244.589 132.667,244.709C132.793,244.828 132.894,244.973 132.969,245.141C133.044,245.308 133.081,245.501 133.081,245.717L133.081,249.478ZM132.163,245.717C132.163,245.585 132.121,245.475 132.037,245.388C131.953,245.301 131.845,245.258 131.714,245.258C131.582,245.258 131.473,245.301 131.389,245.388C131.305,245.474 131.263,245.585 131.263,245.717L131.263,249.478C131.263,249.61 131.305,249.72 131.389,249.806C131.473,249.893 131.582,249.937 131.714,249.937C131.845,249.937 131.953,249.893 132.037,249.806C132.121,249.72 132.163,249.61 132.163,249.478L132.163,245.717Z" style="fill:rgb(227,214,158);fill-rule:nonzero;"/>
                <path d="M128.644,248.101C128.368,248.101 128.178,248.135 128.073,248.2C127.968,248.266 127.915,248.42 127.915,248.659L127.915,249.487C127.915,249.619 127.956,249.727 128.037,249.811C128.118,249.895 128.227,249.937 128.365,249.937C128.527,249.937 128.643,249.887 128.712,249.784C128.781,249.683 128.815,249.583 128.815,249.487L128.815,248.966L129.733,248.966L129.733,249.496C129.733,249.683 129.698,249.859 129.625,250.027C129.553,250.195 129.454,250.34 129.328,250.46C129.202,250.579 129.055,250.676 128.887,250.747C128.719,250.819 128.539,250.855 128.347,250.855C128.095,250.855 127.887,250.806 127.722,250.707C127.557,250.608 127.432,250.508 127.348,250.405C127.288,250.334 127.236,250.262 127.191,250.189C127.146,250.117 127.109,250.03 127.078,249.929C127.024,249.73 126.997,249.436 126.997,249.047C126.997,248.824 127.002,248.645 127.011,248.507C127.02,248.368 127.042,248.255 127.078,248.165C127.12,248.068 127.179,247.987 127.254,247.922C127.329,247.855 127.432,247.783 127.564,247.705C127.42,247.615 127.311,247.531 127.236,247.453C127.161,247.376 127.105,247.285 127.069,247.184C127.034,247.075 127.013,246.948 127.006,246.801C127,246.654 126.997,246.467 126.997,246.238C126.997,246.028 127.002,245.854 127.011,245.717C127.02,245.578 127.034,245.465 127.052,245.375C127.069,245.278 127.094,245.197 127.123,245.132C127.154,245.065 127.192,244.996 127.241,244.925C127.354,244.757 127.5,244.617 127.677,244.506C127.854,244.394 128.086,244.34 128.374,244.34C128.518,244.34 128.671,244.363 128.833,244.411C128.995,244.46 129.142,244.537 129.274,244.645C129.406,244.754 129.516,244.894 129.603,245.068C129.69,245.242 129.733,245.455 129.733,245.708L129.733,246.23L128.815,246.23L128.815,245.753C128.815,245.608 128.775,245.49 128.694,245.397C128.613,245.304 128.503,245.258 128.365,245.258C128.227,245.258 128.118,245.304 128.037,245.397C127.956,245.49 127.915,245.614 127.915,245.77L127.915,246.688C127.915,246.94 127.964,247.105 128.059,247.184C128.114,247.231 128.187,247.262 128.28,247.273C128.373,247.285 128.494,247.292 128.644,247.292L128.644,248.101L128.644,248.101Z" style="fill:rgb(227,214,158);fill-rule:nonzero;"/>
            </g>
        </g>
    </g>
</svg>
