<?xml version="1.0" encoding="UTF-8" standalone="no"?>
<!DOCTYPE svg PUBLIC "-//W3C//DTD SVG 1.1//EN" "http://www.w3.org/Graphics/SVG/1.1/DTD/svg11.dtd">
<svg width="100%" height="100%" viewBox="0 0 72 72" version="1.1" xmlns="http://www.w3.org/2000/svg" xmlns:xlink="http://www.w3.org/1999/xlink" xml:space="preserve" xmlns:serif="http://www.serif.com/" style="fill-rule:evenodd;clip-rule:evenodd;stroke-miterlimit:10;">
    <g transform="matrix(1,0,0,1,-135.14,-19.4761)">
        <path d="M135.71,55.471C135.71,75.041 151.57,90.911 171.14,90.911C190.71,90.911 206.57,75.051 206.57,55.471C206.57,35.891 190.7,20.041 171.14,20.041C151.58,20.041 135.71,35.901 135.71,55.471" style="fill:rgb(34,31,32);fill-rule:nonzero;"/>
        <g>
            <path d="M165.78,27.221C162.84,30.581 156.8,33.511 152.33,33.701C147.87,33.891 144.87,37.641 145.68,42.031C146.49,46.431 145,52.981 142.36,56.591C139.72,60.201 140.79,64.871 144.73,66.981C148.66,69.091 152.85,74.341 154.03,78.651C155.21,82.961 159.53,85.041 163.64,83.281C167.73,81.521 174.45,81.521 178.56,83.281C182.67,85.051 186.99,82.971 188.16,78.651C189.35,74.341 193.53,69.091 197.47,66.981C201.42,64.871 202.49,60.201 199.85,56.591C197.21,52.981 195.72,46.431 196.53,42.031C197.35,37.631 194.35,33.891 189.88,33.701C186.635,33.563 182.549,31.98 179.434,29.829C178.268,29.024 177.238,28.139 176.44,27.221C174.97,25.531 173.04,24.691 171.11,24.691C169.18,24.691 167.25,25.541 165.78,27.221" style="fill:rgb(41,41,41);fill-rule:nonzero;"/>
            <g transform="matrix(1,0,0,1,-0.335256,0)">
                <path d="M171.44,52.476L171.44,24.691" style="fill:none;fill-rule:nonzero;stroke:rgb(252,252,252);stroke-width:3px;"/>
            </g>
            <path d="M165.78,27.221C165.056,28.048 164.145,28.849 163.116,29.589C159.962,31.857 155.7,33.558 152.33,33.701C147.87,33.891 144.87,37.641 145.68,42.031C146.49,46.431 145,52.981 142.36,56.591C139.72,60.201 140.79,64.871 144.73,66.981C148.66,69.091 152.85,74.341 154.03,78.651C155.21,82.961 159.53,85.041 163.64,83.281C167.73,81.521 174.45,81.521 178.56,83.281C182.67,85.051 186.99,82.971 188.16,78.651C189.35,74.341 193.53,69.091 197.47,66.981C201.42,64.871 202.49,60.201 199.85,56.591C197.21,52.981 195.72,46.431 196.53,42.031C197.35,37.631 194.35,33.891 189.88,33.701C185.42,33.511 179.37,30.591 176.44,27.221C174.97,25.531 173.04,24.691 171.11,24.691C169.18,24.691 167.25,25.541 165.78,27.221" style="fill:none;fill-rule:nonzero;stroke:rgb(70,70,70);stroke-width:2px;"/>
        </g>
    </g>
</svg>
