<?xml version="1.0" encoding="UTF-8" standalone="no"?>
<!DOCTYPE svg PUBLIC "-//W3C//DTD SVG 1.1//EN" "http://www.w3.org/Graphics/SVG/1.1/DTD/svg11.dtd">
<svg width="100%" height="100%" viewBox="0 0 34 34" version="1.1" xmlns="http://www.w3.org/2000/svg" xmlns:xlink="http://www.w3.org/1999/xlink" xml:space="preserve" xmlns:serif="http://www.serif.com/" style="fill-rule:evenodd;clip-rule:evenodd;stroke-linejoin:round;stroke-miterlimit:2;">
    <path d="M27.1,3.1C26.7,2.7 26,3.1 25.7,3.1C25.4,3.1 24.1,3.5 22.2,2.7C20.9,2.1 20.4,1.4 20.1,0.9C19.9,0.6 19.8,0.4 19.7,0.3C19.3,0 18.7,0 18.7,0L14.2,0C13.6,0 13.4,0.8 13.2,1C13,1.2 12.4,2.4 10.4,3.2C8.4,4 7.5,3.2 6.9,3.2C6.6,3.2 6.2,3.6 6.2,3.6L3.3,6.5L3.1,6.8C2.7,7.2 3.1,7.9 3.1,8.2C3.1,8.5 3.5,9.8 2.7,11.7C1.8,13.7 0.7,13.8 0.3,14.3C0,14.6 0,15.2 0,15.2L0,19.7C0,20.3 0.8,20.6 1,20.7C1.2,20.9 2.4,21.5 3.2,23.5C4,25.5 3.2,26.4 3.2,27C3.2,27.3 3.6,27.7 3.6,27.7L6.5,30.6L6.8,30.8C7.2,31.2 7.9,30.8 8.2,30.8C8.5,30.8 9.8,30.4 11.7,31.2C13,31.8 13.5,32.5 13.8,33C14,33.3 14.1,33.5 14.2,33.6C14.5,33.8 15,33.8 15,33.8L19.5,33.8C20.1,33.8 20.4,33 20.5,32.8C20.7,32.6 21.3,31.4 23.3,30.6C25.3,29.8 26.2,30.6 26.8,30.6C27.1,30.6 27.5,30.2 27.5,30.2L30.4,27.3L30.6,27C31,26.6 30.6,25.9 30.6,25.6C30.6,25.3 30.2,24 31,22.1C31.9,20.1 33,20 33.4,19.5C33.6,19.2 33.6,18.7 33.6,18.7L33.6,14.2C33.6,13.6 32.8,13.4 32.6,13.2C32.4,13 31.2,12.4 30.4,10.4C29.6,8.4 30.4,7.5 30.4,6.9C30.4,6.6 30,6.2 30,6.2L27.1,3.3L26.8,3.1L27.1,3.1Z" style="fill:rgb(34,31,32);fill-rule:nonzero;"/>
    <rect x="16" y="0" width="2" height="14" style="fill:rgb(252,252,252);"/>
</svg>
