<?xml version="1.0" encoding="UTF-8" standalone="no"?>
<!DOCTYPE svg PUBLIC "-//W3C//DTD SVG 1.1//EN" "http://www.w3.org/Graphics/SVG/1.1/DTD/svg11.dtd">
<svg width="100%" height="100%" viewBox="0 0 630 380" version="1.1" xmlns="http://www.w3.org/2000/svg" xmlns:xlink="http://www.w3.org/1999/xlink" xml:space="preserve" xmlns:serif="http://www.serif.com/" style="fill-rule:evenodd;clip-rule:evenodd;stroke-linejoin:round;stroke-miterlimit:2;">
    <g id="switches">
        <g transform="matrix(0.552526,0,0,0.552526,87.48198,51.386568)">
            <circle cx="20.499" cy="124.413" r="13.591" style="fill:rgb(235,235,235);"/>
        </g>
        <g transform="matrix(0.552526,0,0,0.552526,316.90789,33.939649)">
            <circle cx="20.499" cy="124.413" r="13.591" style="fill:rgb(235,235,235);"/>
        </g>
        <g transform="matrix(0.552526,0,0,0.552526,406.468398,54.839032)">
            <circle cx="20.499" cy="124.413" r="13.591" style="fill:rgb(235,235,235);"/>
        </g>
        <g transform="matrix(0.552526,0,0,0.552526,479.418311,25.532311)">
            <circle cx="20.499" cy="124.413" r="13.591" style="fill:rgb(235,235,235);"/>
        </g>
        <g transform="matrix(0.552526,0,0,0.552526,512.856401,25.33387)">
            <circle cx="20.499" cy="124.413" r="13.591" style="fill:rgb(235,235,235);"/>
        </g>
        <g transform="matrix(0.552526,0,0,0.552526,406.542763,197.73936)">
            <circle cx="20.499" cy="124.413" r="13.591" style="fill:rgb(235,235,235);"/>
        </g>
        <g transform="matrix(0.552526,0,0,0.552526,479.403951,227.722045)">
            <circle cx="20.499" cy="124.413" r="13.591" style="fill:rgb(235,235,235);"/>
        </g>
        <g transform="matrix(0.552526,0,0,0.552526,512.899844,227.691852)">
            <circle cx="20.499" cy="124.413" r="13.591" style="fill:rgb(235,235,235);"/>
        </g>
    </g>
    <g id="buttons" transform="matrix(1.035629,0,0,1.035629,2.24,0.998)">
        <g transform="matrix(0.921432,0,0,0.921432,284.758487,175.615068)">
            <circle cx="20.499" cy="124.413" r="13.591" style="fill:rgb(235,235,235);"/>
        </g>
        <g transform="matrix(0.921432,0,0,0.921432,319.072598,175.808172)">
            <circle cx="20.499" cy="124.413" r="13.591" style="fill:rgb(235,235,235);"/>
        </g>
        <g transform="matrix(0.921432,0,0,0.921432,284.770227,210.480165)">
            <circle cx="20.499" cy="124.413" r="13.591" style="fill:rgb(235,235,235);"/>
        </g>
        <g transform="matrix(0.921432,0,0,0.921432,319.084337,210.673269)">
            <circle cx="20.499" cy="124.413" r="13.591" style="fill:rgb(235,235,235);"/>
        </g>
    </g>
    <g id="small" transform="matrix(1.035629,0,0,1.035629,2.24,0.998)">
        <g transform="matrix(0.921432,0,0,0.921432,-1.003227,3.842744)">
            <circle cx="20.499" cy="124.413" r="13.591" style="fill:rgb(235,235,235);"/>
        </g>
        <g transform="matrix(0.921432,0,0,0.921432,36.683094,3.842744)">
            <circle cx="20.499" cy="124.413" r="13.591" style="fill:rgb(235,235,235);"/>
        </g>
        <g transform="matrix(0.921432,0,0,0.921432,117.00417,3.986204)">
            <circle cx="20.499" cy="124.413" r="13.591" style="fill:rgb(235,235,235);"/>
        </g>
        <g transform="matrix(0.921432,0,0,0.921432,186.675442,3.986204)">
            <circle cx="20.499" cy="124.413" r="13.591" style="fill:rgb(235,235,235);"/>
        </g>
        <g transform="matrix(0.921432,0,0,0.921432,344.355775,3.986204)">
            <circle cx="20.499" cy="124.413" r="13.591" style="fill:rgb(235,235,235);"/>
        </g>
        <g transform="matrix(0.921432,0,0,0.921432,419.785102,4.039853)">
            <circle cx="20.499" cy="124.413" r="13.591" style="fill:rgb(235,235,235);"/>
        </g>
        <g transform="matrix(0.921432,0,0,0.921432,518.399902,-66.256732)">
            <circle cx="20.499" cy="124.413" r="13.591" style="fill:rgb(235,235,235);"/>
        </g>
        <g transform="matrix(0.921432,0,0,0.921432,518.399902,-29.704994)">
            <circle cx="20.499" cy="124.413" r="13.591" style="fill:rgb(235,235,235);"/>
        </g>
        <g transform="matrix(0.921432,0,0,0.921432,518.399902,7.553208)">
            <circle cx="20.499" cy="124.413" r="13.591" style="fill:rgb(235,235,235);"/>
        </g>
        <g transform="matrix(0.921432,0,0,0.921432,564.916796,-66.256732)">
            <circle cx="20.499" cy="124.413" r="13.591" style="fill:rgb(235,235,235);"/>
        </g>
        <g transform="matrix(0.921432,0,0,0.921432,564.916796,-29.704994)">
            <circle cx="20.499" cy="124.413" r="13.591" style="fill:rgb(235,235,235);"/>
        </g>
        <g transform="matrix(0.921432,0,0,0.921432,564.916796,7.553208)">
            <circle cx="20.499" cy="124.413" r="13.591" style="fill:rgb(235,235,235);"/>
        </g>
        <g transform="matrix(0.921432,0,0,0.921432,344.500329,141.882066)">
            <circle cx="20.499" cy="124.413" r="13.591" style="fill:rgb(235,235,235);"/>
        </g>
        <g transform="matrix(0.921432,0,0,0.921432,249.378253,131.094207)">
            <circle cx="20.499" cy="124.413" r="13.591" style="fill:rgb(235,235,235);"/>
        </g>
        <g transform="matrix(0.921432,0,0,0.921432,296.979016,131.094207)">
            <circle cx="20.499" cy="124.413" r="13.591" style="fill:rgb(235,235,235);"/>
        </g>
        <g transform="matrix(0.921432,0,0,0.921432,223.956388,163.045447)">
            <circle cx="20.499" cy="124.413" r="13.591" style="fill:rgb(235,235,235);"/>
        </g>
        <g transform="matrix(0.921432,0,0,0.921432,419.929656,141.935715)">
            <circle cx="20.499" cy="124.413" r="13.591" style="fill:rgb(235,235,235);"/>
        </g>
        <g transform="matrix(0.921432,0,0,0.921432,117.00417,141.833561)">
            <circle cx="20.499" cy="124.413" r="13.591" style="fill:rgb(235,235,235);"/>
        </g>
        <g transform="matrix(0.921432,0,0,0.921432,186.675442,141.833561)">
            <circle cx="20.499" cy="124.413" r="13.591" style="fill:rgb(235,235,235);"/>
        </g>
    </g>
    <g id="medium">
        <g transform="matrix(1.019704,0,0,1.019704,-8.838013,-2.535263)">
            <circle cx="495.763" cy="52.424" r="21.169" style="fill:rgb(235,235,235);"/>
        </g>
        <g transform="matrix(1.019704,0,0,1.019704,-180.015083,7.780774)">
            <circle cx="495.763" cy="52.424" r="21.169" style="fill:rgb(235,235,235);"/>
        </g>
        <g transform="matrix(1.019704,0,0,1.019704,-9.711979,285.005441)">
            <circle cx="495.763" cy="52.424" r="21.169" style="fill:rgb(235,235,235);"/>
        </g>
    </g>
    <g id="large">
        <g transform="matrix(1.360258,0,0,1.360258,-34.092865,-37.833891)">
            <circle cx="69.112" cy="70.709" r="31.402" style="fill:rgb(235,235,235);"/>
        </g>
        <g transform="matrix(1.360258,0,0,1.360258,85.256389,-37.833891)">
            <circle cx="69.112" cy="70.709" r="31.402" style="fill:rgb(235,235,235);"/>
        </g>
        <g transform="matrix(1.360258,0,0,1.360258,323.457516,-37.833891)">
            <circle cx="69.112" cy="70.709" r="31.402" style="fill:rgb(235,235,235);"/>
        </g>
        <g transform="matrix(1.360258,0,0,1.360258,85.256389,235.838617)">
            <circle cx="69.112" cy="70.709" r="31.402" style="fill:rgb(235,235,235);"/>
        </g>
        <g transform="matrix(1.360258,0,0,1.360258,323.457516,235.838617)">
            <circle cx="69.112" cy="70.709" r="31.402" style="fill:rgb(235,235,235);"/>
        </g>
        <g transform="matrix(1.360258,0,0,1.360258,487.834768,235.801647)">
            <circle cx="69.112" cy="70.709" r="31.402" style="fill:rgb(235,235,235);"/>
        </g>
    </g>
</svg>
